<svg width="200" height="200" viewBox="0 0 200 200" fill="none" xmlns="http://www.w3.org/2000/svg">
<path d="M100 0C80.2219 0 60.8879 5.88397 44.443 16.9078C27.9981 27.9317 15.1809 43.6004 7.61209 61.9324C0.0433281 80.2645 -1.937 100.437 1.92152 119.898C5.78004 139.359 15.3041 157.235 29.2894 171.266C43.2746 185.297 61.0929 194.852 80.491 198.723C99.8891 202.594 119.996 200.607 138.268 193.014C156.541 185.42 172.159 172.561 183.147 156.063C194.135 139.565 200 120.168 200 100.325C200 73.7173 189.464 48.1992 170.711 29.3846C151.957 10.5699 126.522 0 100 0V0ZM129.766 60.732C127.652 62.2083 125.164 62.4097 120.401 63.4163C113.017 64.9866 109.512 62.4231 104.348 64.7584C101.304 66.2443 98.8215 68.6786 97.2709 71.6973C97.1178 71.93 96.9793 72.1721 96.8562 72.4221C96.7092 72.6745 96.5753 72.9343 96.4549 73.2005C95.8915 74.3819 95.4 75.5965 94.9833 76.8377C93.7625 76.0191 92.3185 75.6008 90.8507 75.6408C89.3829 75.6808 87.9636 76.177 86.7889 77.0609C85.6142 77.9448 84.742 79.1727 84.2928 80.5752C83.8436 81.9778 83.8394 83.4856 84.281 84.8906V95.6277L68.2275 110.391C61.9397 102.656 57.7878 93.3997 56.1873 83.5484C55.3445 78.1798 53.8596 67.8588 58.8629 56.7056C60.495 53.0683 64 45.2437 72.2408 40.5998C74.7826 39.1772 80.1472 36.6942 92.9097 37.7142L94.9699 37.9155C97.1238 38.1437 99.3044 38.439 101.485 38.8014C104.87 39.3516 108.174 40.063 111.478 40.8817C124.562 44.2102 135.398 49.4043 135.09 54.0213C134.957 56.2895 132.04 59.1348 129.766 60.732Z" fill="white"/>
<path d="M135.117 54.0215C134.957 56.2897 132.04 59.135 129.766 60.7322C127.492 62.3293 125.164 62.4099 120.401 63.4165C113.017 64.9868 109.512 62.4233 104.348 64.7586C101.304 66.2445 98.8215 68.6788 97.271 71.6975C97.1179 71.9302 96.9794 72.1723 96.8563 72.4223C96.7093 72.6747 96.5753 72.9345 96.4549 73.2007C95.8915 74.3821 95.4001 75.5968 94.9833 76.8379C94.4482 76.6634 89.3646 75.12 85.6188 78.1801C82.9432 80.3409 82.5419 83.5486 82.2743 85.5618C81.8571 89.046 82.5602 92.5728 84.281 95.6279L68.2275 110.391C61.9397 102.656 57.7878 93.3999 56.1874 83.5486C55.3446 78.18 53.8596 67.859 58.863 56.7058C60.4951 53.0686 64.0001 45.2439 72.2409 40.6C74.7827 39.1774 80.1472 36.6944 92.9098 37.7144L94.97 37.9158C97.1238 38.1439 99.3044 38.4392 101.485 38.8016C104.87 39.3519 108.174 40.0632 111.478 40.8819C124.589 44.2104 135.425 49.4045 135.117 54.0215Z" fill="black"/>
<path d="M133.779 99.654C133.325 100.175 132.798 100.627 132.214 100.996C131.196 101.445 130.096 101.677 128.983 101.677C127.871 101.677 126.771 101.445 125.752 100.996V110.391L124.669 110.176C120.789 109.371 120.107 108.968 119.064 109.049C118.02 109.13 116.669 109.64 115.05 111.733L124.415 114.418C123.725 117.79 122.36 120.986 120.401 123.813C118.515 126.497 117.324 128.55 115.05 129.181C109.057 130.832 104.348 124.752 100.334 126.497C96.321 128.242 95.4113 134.63 94.9832 137.234C93.6455 145.287 96.2274 146.428 94.9832 147.971C94.6573 148.295 94.259 148.535 93.8215 148.673C93.384 148.811 92.92 148.842 92.4682 148.763C88.4548 148.629 79.0903 145.032 58.8762 133.208C61.9888 125.602 65.1103 117.997 68.2408 110.391L84.2943 95.6276C83.3827 93.0423 82.4734 90.1827 82.5 87.4406C82.5 83.9241 83.0501 80.4748 85.6321 78.1797C89.0568 75.133 94.3812 76.6497 94.9966 76.8376C95.4134 75.5964 95.9048 74.3818 96.4682 73.2003C96.4682 73.2003 96.7226 72.6743 96.8695 72.4219C96.8695 72.4219 97.0702 72.0461 97.2843 71.6971C100.027 67.107 103.5 65.3291 103.5 65.3291C107.005 63.8662 110.836 63.8993 117.726 63.4161C121.315 63.164 124.888 62.716 128.428 62.074C129.201 66.1322 129.435 70.2751 129.124 74.3949C128.995 76.1163 128.762 77.8284 128.428 79.5218C126.528 89.2524 136.455 96.755 133.779 99.654Z" fill="white" stroke="black" stroke-width="1.07" stroke-linejoin="round"/>
<path d="M28.0937 169.445C28.0937 169.325 28.0268 169.19 27.9867 169.016C26.7559 162.399 41.4716 147.971 41.4716 147.971C46.0335 143.529 51.9315 138.426 58.5001 132.668L95.5 143.724C96.0937 148.513 97.7635 152.69 100.12 156.896C101.913 160.05 103.518 160.923 108.361 166.761C125.552 187.564 125.204 191.51 124.415 193.604C121.833 200.409 107.505 200.784 99.6656 200.986C85.29 201.244 71.0641 198.021 58.194 191.591C50.9298 187.954 38.9967 181.404 30.7693 173.472C29.5264 172.401 28.6008 171.008 28.0937 169.445Z" fill="black"/>
<path d="M130.435 110.391H143.813" stroke="black" stroke-linejoin="round"/>
<path d="M130.849 117.424L143.358 122.162" stroke="black" stroke-linejoin="round"/>
<path d="M126.408 122.752L135.13 132.926" stroke="black" stroke-linejoin="round"/>
<path d="M130.288 195.953C131.96 188.316 133.043 182.008 133.779 177.324C134.478 173.158 134.925 168.954 135.117 164.735C135.371 158.4 134.702 159.044 135.117 156.346C136.321 148.468 141.191 147.971 144.482 138.174C145.819 134.214 146.033 131.235 147.157 131.181C148.281 131.127 149.579 134.134 149.833 136.778C150.007 138.59 149.686 140.026 148.495 143.77C146.341 150.481 145.498 151.931 145.819 152.159C146.528 152.642 152.602 146.696 155.184 138.174C156.168 135.491 156.622 132.642 156.522 129.785C156.227 124.954 154.167 122.645 155.184 118.605C155.184 118.431 156.254 114.458 157.859 114.404C160.441 114.324 162.595 124.403 163.211 126.994C164.411 131.07 164.864 135.331 164.548 139.569C164.294 142.079 162.582 146.401 159.197 154.95C157.124 160.185 156.08 162.802 155.184 164.735C151.786 172.063 150.488 172.318 149.833 175.915C148.843 181.283 150.435 184.115 150.1 187.162" stroke="black" stroke-width="1.09" stroke-linejoin="round"/>
</svg>
