<svg width="200" height="201" viewBox="0 0 200 201" fill="none" xmlns="http://www.w3.org/2000/svg">
<path d="M100 0C80.2219 0 60.8879 5.8649 44.443 16.853C27.9981 27.8412 15.1809 43.459 7.61209 61.7316C0.0433283 80.0042 -1.937 100.111 1.92152 119.509C5.78004 138.907 15.3041 156.725 29.2894 170.711C43.2746 184.696 61.0929 194.22 80.491 198.078C99.8891 201.937 119.996 199.957 138.268 192.388C156.541 184.819 172.159 172.002 183.147 155.557C194.135 139.112 200 119.778 200 100C200 73.4783 189.464 48.0429 170.711 29.2893C151.957 10.5357 126.522 0 100 0ZM129.766 60.5351C127.652 62.0067 125.164 62.2073 120.401 63.2107C113.017 64.7759 109.512 62.2207 104.348 64.5485C101.304 66.0296 98.8215 68.4559 97.2709 71.4649C97.1178 71.6968 96.9793 71.9381 96.8562 72.1873C96.7092 72.4389 96.5753 72.6979 96.4549 72.9632C95.8915 74.1408 95.4 75.3515 94.9833 76.5886C93.7625 75.7726 92.3185 75.3558 90.8507 75.3956C89.3829 75.4354 87.9636 75.93 86.7889 76.811C85.6142 77.6921 84.742 78.9161 84.2928 80.314C83.8436 81.712 83.8394 83.215 84.281 84.6154V95.3177L68.2275 110.033C61.9397 102.323 57.7878 93.0969 56.1873 83.2776C55.3445 77.9264 53.8596 67.6388 58.8629 56.5217C60.495 52.8963 64 45.097 72.2408 40.4682C74.7826 39.0502 80.1472 36.5752 92.9097 37.592L94.9699 37.7926C97.1238 38.0201 99.3044 38.3144 101.485 38.6756C104.87 39.2241 108.174 39.9331 111.478 40.7492C124.562 44.0669 135.398 49.2441 135.09 53.8461C134.957 56.107 132.04 58.9431 129.766 60.5351Z" fill="white"/>
<path d="M154.167 109.445C154.877 109.445 155.557 109.727 156.059 110.228C156.561 110.73 156.843 111.411 156.843 112.12V146.823H151.492V112.12C151.492 111.411 151.773 110.73 152.275 110.228C152.777 109.727 153.458 109.445 154.167 109.445Z" fill="#F15A24"/>
<path d="M153.846 156.187C157.171 156.187 159.866 153.492 159.866 150.167C159.866 146.842 157.171 144.147 153.846 144.147C150.521 144.147 147.826 146.842 147.826 150.167C147.826 153.492 150.521 156.187 153.846 156.187Z" fill="#F15A24"/>
<path d="M147.157 98.6622C147.144 98.8849 147.144 99.1083 147.157 99.3311V98.6622Z" stroke="black" stroke-width="1.05" stroke-linejoin="round"/>
<path d="M160.535 98.6622V99.3311C160.549 99.1083 160.549 98.8849 160.535 98.6622V98.6622Z" stroke="black" stroke-width="1.05" stroke-linejoin="round"/>
<path d="M160.535 99.3311V142.729C162.266 144.115 163.524 146.004 164.134 148.136C164.745 150.267 164.679 152.536 163.944 154.628C163.21 156.72 161.844 158.533 160.035 159.815C158.226 161.097 156.063 161.786 153.846 161.786C151.629 161.786 149.466 161.097 147.657 159.815C145.848 158.533 144.482 156.72 143.748 154.628C143.013 152.536 142.947 150.267 143.558 148.136C144.169 146.004 145.426 144.115 147.157 142.729V99.3311" stroke="black" stroke-width="1.05" stroke-linejoin="round"/>
<path d="M147.157 98.6622C147.337 97.0247 148.116 95.5113 149.342 94.4121C150.569 93.3128 152.159 92.7049 153.806 92.7049C155.453 92.7049 157.043 93.3128 158.27 94.4121C159.497 95.5113 160.275 97.0247 160.455 98.6622" stroke="black" stroke-width="1.05" stroke-linejoin="round"/>
<path d="M135.117 53.8461C134.957 56.107 132.04 58.9431 129.766 60.5351C127.492 62.1271 125.164 62.2073 120.401 63.2107C113.017 64.7759 109.512 62.2207 104.348 64.5485C101.304 66.0296 98.8215 68.4559 97.271 71.4649C97.1179 71.6968 96.9794 71.9381 96.8563 72.1873C96.7093 72.4389 96.5753 72.6979 96.4549 72.9632C95.8915 74.1408 95.4001 75.3515 94.9833 76.5886C94.4482 76.4147 89.3646 74.8762 85.6188 77.9264C82.9432 80.0802 82.5419 83.2776 82.2743 85.2843C81.8571 88.7571 82.5602 92.2724 84.281 95.3177L68.2275 110.033C61.9397 102.323 57.7878 93.0969 56.1874 83.2776C55.3446 77.9264 53.8596 67.6388 58.863 56.5217C60.4951 52.8963 64.0001 45.097 72.2409 40.4682C74.7827 39.0502 80.1472 36.5752 92.9098 37.592L94.97 37.7926C97.1238 38.0201 99.3044 38.3144 101.485 38.6756C104.87 39.2241 108.174 39.9331 111.478 40.7491C124.589 44.0669 135.425 49.2441 135.117 53.8461Z" fill="black"/>
<path d="M133.779 99.3311C133.325 99.8503 132.798 100.301 132.214 100.669C131.196 101.117 130.096 101.348 128.983 101.348C127.871 101.348 126.771 101.117 125.752 100.669V110.033L123.839 109.699C120.321 109.003 119.251 108.468 119.064 108.749C118.876 109.03 119.746 110.261 124.415 114.1C123.725 117.461 122.36 120.647 120.401 123.465C118.515 126.14 117.324 128.187 115.05 128.816C109.057 130.462 104.348 124.401 100.334 126.14C96.321 127.88 95.4113 134.247 94.9832 136.843C93.6454 144.87 96.2274 146.007 94.9832 147.545C94.6573 147.868 94.259 148.108 93.8215 148.245C93.384 148.382 92.92 148.413 92.4682 148.334V148.334C88.4548 148.201 79.0903 144.615 58.8762 132.829C61.9888 125.249 65.1103 117.668 68.2408 110.087L84.2943 95.3712C83.3827 92.7944 82.9299 90.0777 82.9565 87.3445C82.9565 83.8394 83.0501 80.2675 85.6321 77.9799C89.0568 74.9431 94.3812 76.4548 94.9966 76.6421C95.4134 75.405 95.9048 74.1943 96.4682 73.0167C96.5886 72.7514 96.7226 72.4924 96.8695 72.2408C96.8695 72.2408 97.0702 71.8662 97.2842 71.5184C100.027 66.8896 105.686 64.5485 105.686 64.5485C109.191 63.0903 110.836 63.6923 117.726 63.2107C121.315 62.9594 124.888 62.5128 128.428 61.8729C129.201 65.9179 129.435 70.0474 129.124 74.1538C128.995 75.8697 128.762 77.5763 128.428 79.2642C126.528 88.9632 136.455 96.4414 133.779 99.3311Z" stroke="black" stroke-width="1.07" stroke-linejoin="round"/>
<path d="M28.0935 168.896C28.0935 168.776 28.0266 168.642 27.9864 168.468C26.7557 161.873 41.4714 147.492 41.4714 147.492C46.0333 143.064 51.6252 137.846 58.1938 132.107L95.652 142.809C96.2457 147.583 97.7633 152.195 100.12 156.388C101.913 159.532 103.518 160.401 108.361 166.221C125.552 186.956 125.204 190.89 124.415 192.977C121.833 199.759 107.505 200.134 99.6654 200.334C85.2897 200.592 71.0639 197.38 58.1938 190.97C50.9296 187.344 38.9965 180.816 30.7691 172.91C29.5262 171.842 28.6006 170.454 28.0935 168.896Z" fill="black"/>
<path d="M93.6455 19.0635C90.0736 21.2977 88.2943 23.5318 88.2943 25.7525C88.2943 29.5786 93.6455 31.291 93.6455 35.117C93.6314 35.9919 93.3819 36.8469 92.9231 37.592" stroke="white" stroke-width="1.02" stroke-miterlimit="10"/>
<path d="M92.9097 37.592C91.7194 39.3361 90.1392 40.7789 88.2943 41.806" stroke="white" stroke-width="1.02" stroke-miterlimit="10"/>
<path d="M97.6588 41.806C101.231 39.5719 103.01 37.3378 103.01 35.117C103.01 31.291 97.6588 29.5786 97.6588 25.7525C97.6588 23.5318 99.4381 21.2977 103.01 19.0635" stroke="white" stroke-width="1.02" stroke-miterlimit="10"/>
<path d="M113.712 20.4013C110.14 22.6354 108.361 24.8696 108.361 27.0903C108.361 30.9164 113.712 32.6288 113.712 36.4548C113.658 37.2835 113.433 38.0922 113.054 38.8308C112.674 39.5694 112.147 40.2223 111.505 40.7492" stroke="white" stroke-width="1.02" stroke-miterlimit="10"/>
<path d="M111.492 40.7491C110.542 41.6634 109.492 42.4668 108.361 43.1438" stroke="white" stroke-width="1.02" stroke-miterlimit="10"/>
<path d="M101.07 85.9532C98.1939 88.0669 96.8294 90.8629 97.6588 93.1103C97.9296 93.8333 98.3799 94.4754 98.9673 94.9762C99.5548 95.4771 100.26 95.8202 101.017 95.9732C101.647 96.0149 102.279 95.907 102.86 95.6582C103.442 95.4095 103.956 95.0269 104.361 94.5418C105.886 92.6822 104.615 89.204 101.07 85.9532Z" fill="#00397F"/>
<path d="M110.435 73.913C107.558 76.0267 106.194 78.8227 107.023 81.0702C107.294 81.7931 107.744 82.4353 108.332 82.9361C108.919 83.437 109.625 83.7801 110.381 83.9331C111.012 83.9748 111.644 83.8668 112.225 83.6181C112.806 83.3693 113.32 82.9868 113.726 82.5016C115.251 80.6421 113.98 77.1639 110.435 73.913Z" fill="#00397F"/>
</svg>
