<svg width="200" height="201" viewBox="0 0 200 201" fill="none" xmlns="http://www.w3.org/2000/svg">
<path d="M100 0C80.2219 0 60.8879 5.8649 44.443 16.853C27.9981 27.8412 15.1809 43.459 7.61209 61.7316C0.0433283 80.0042 -1.937 100.111 1.92152 119.509C5.78004 138.907 15.3041 156.725 29.2894 170.711C43.2746 184.696 61.0929 194.22 80.491 198.078C99.8891 201.937 119.996 199.957 138.268 192.388C156.541 184.819 172.159 172.002 183.147 155.557C194.135 139.112 200 119.778 200 100C200 73.4783 189.464 48.0429 170.711 29.2893C151.957 10.5357 126.522 0 100 0ZM129.766 60.5351C127.652 62.0067 125.164 62.2073 120.401 63.2107C113.017 64.7759 109.512 62.2207 104.348 64.5485C101.304 66.0296 98.8215 68.4559 97.2709 71.4649C97.1178 71.6968 96.9793 71.9381 96.8562 72.1873C96.7092 72.4389 96.5753 72.6979 96.4549 72.9632C95.8915 74.1408 95.4 75.3515 94.9833 76.5886C93.7625 75.7726 92.3185 75.3558 90.8507 75.3956C89.3829 75.4354 87.9636 75.93 86.7889 76.811C85.6142 77.6921 84.742 78.9161 84.2928 80.314C83.8436 81.712 83.8394 83.215 84.281 84.6154V95.3177L68.2275 110.033C61.9397 102.323 57.7878 93.0969 56.1873 83.2776C55.3445 77.9264 53.8596 67.6388 58.8629 56.5217C60.495 52.8963 64 45.097 72.2408 40.4682C74.7826 39.0502 80.1472 36.5752 92.9097 37.592L94.9699 37.7926C97.1238 38.0201 99.3044 38.3144 101.485 38.6756C104.87 39.2241 108.174 39.9331 111.478 40.7492C124.562 44.0669 135.398 49.2441 135.09 53.8461C134.957 56.107 132.04 58.9431 129.766 60.5351Z" fill="white"/>
<path d="M135.117 53.8461C134.957 56.107 132.04 58.9431 129.766 60.5351C127.492 62.1271 125.164 62.2073 120.401 63.2107C113.017 64.7759 109.512 62.2207 104.348 64.5485C101.304 66.0296 98.8215 68.4559 97.271 71.4649C97.1179 71.6968 96.9794 71.9381 96.8563 72.1873C96.7093 72.4389 96.5753 72.6979 96.4549 72.9632C95.8915 74.1408 95.4001 75.3515 94.9833 76.5886C94.4482 76.4147 89.3646 74.8762 85.6188 77.9264C82.9432 80.0802 82.5419 83.2776 82.2743 85.2843C81.8571 88.7571 82.5602 92.2724 84.281 95.3177L68.2275 110.033C61.9397 102.323 57.7878 93.0969 56.1874 83.2776C55.3446 77.9264 53.8596 67.6388 58.863 56.5217C60.4951 52.8963 64.0001 45.097 72.2409 40.4682C74.7827 39.0502 80.1472 36.5752 92.9098 37.592L94.97 37.7926C97.1238 38.0201 99.3044 38.3144 101.485 38.6756C104.87 39.2241 108.174 39.9331 111.478 40.7491C124.589 44.0669 135.425 49.2441 135.117 53.8461Z" fill="black"/>
<path d="M133.779 99.3311C133.325 99.8503 132.798 100.301 132.214 100.669C131.196 101.117 130.096 101.348 128.983 101.348C127.871 101.348 126.771 101.117 125.752 100.669V110.033L124.669 109.819C120.789 109.017 120.107 108.615 119.064 108.696C118.02 108.776 116.669 109.284 115.05 111.371L124.415 114.047C123.725 117.408 122.36 120.594 120.401 123.411C118.515 126.087 117.324 128.134 115.05 128.763C109.057 130.408 104.348 124.348 100.334 126.087C96.321 127.826 95.4113 134.194 94.9832 136.789C93.6454 144.816 96.2274 145.953 94.9832 147.492C94.6573 147.814 94.259 148.054 93.8215 148.191C93.384 148.329 92.92 148.359 92.4682 148.281V148.281C88.4548 148.147 79.0903 144.562 58.8762 132.776C61.9888 125.195 65.1103 117.614 68.2408 110.033L84.2943 95.3177C83.3827 92.7409 82.9299 90.0242 82.9565 87.2909C82.9565 83.7859 83.0501 80.214 85.6321 77.9264C89.0568 74.8896 94.3812 76.4013 94.9966 76.5886C95.4134 75.3515 95.9048 74.1408 96.4682 72.9632C96.5886 72.6979 96.7226 72.4389 96.8695 72.1873C96.8695 72.1873 97.0702 71.8127 97.2842 71.4649C100.027 66.8896 105.686 64.5485 105.686 64.5485C109.191 63.0903 110.836 63.6923 117.726 63.2107C121.315 62.9594 124.888 62.5128 128.428 61.8729C129.201 65.9179 129.435 70.0474 129.124 74.1538C128.995 75.8697 128.762 77.5763 128.428 79.2642C126.528 88.9632 136.455 96.4414 133.779 99.3311Z" stroke="black" stroke-width="1.07" stroke-linejoin="round"/>
<path d="M28.0937 168.896C28.0937 168.776 28.0268 168.642 27.9867 168.468C26.7559 161.873 41.4716 147.492 41.4716 147.492C46.0335 143.064 51.6255 137.846 58.194 132.107L95.6522 142.809C96.2459 147.583 97.7636 152.195 100.12 156.388C101.913 159.532 103.518 160.401 108.361 166.221C125.552 186.956 125.204 190.89 124.415 192.977C121.833 199.759 107.505 200.134 99.6656 200.334C85.29 200.592 71.0641 197.38 58.194 190.97C50.9298 187.344 38.9967 180.816 30.7693 172.91C29.5264 171.842 28.6008 170.454 28.0937 168.896Z" fill="black"/>
<path d="M89.1906 124.749C91.4072 124.749 93.204 122.952 93.204 120.736C93.204 118.519 91.4072 116.722 89.1906 116.722C86.9741 116.722 85.1772 118.519 85.1772 120.736C85.1772 122.952 86.9741 124.749 89.1906 124.749Z" fill="#F15A24"/>
<path d="M89.1906 131.438C95.1014 131.438 99.893 126.646 99.893 120.736C99.893 114.825 95.1014 110.033 89.1906 110.033C83.2799 110.033 78.4883 114.825 78.4883 120.736C78.4883 126.646 83.2799 131.438 89.1906 131.438Z" stroke="#F15A24" stroke-width="0.84" stroke-miterlimit="10"/>
<path d="M89.1907 136.789C98.0568 136.789 105.244 129.602 105.244 120.736C105.244 111.87 98.0568 104.682 89.1907 104.682C80.3246 104.682 73.1372 111.87 73.1372 120.736C73.1372 129.602 80.3246 136.789 89.1907 136.789Z" stroke="#F15A24" stroke-width="1.06" stroke-miterlimit="10"/>
</svg>
