<svg width="200" height="200" viewBox="0 0 200 200" fill="none" xmlns="http://www.w3.org/2000/svg">
<path d="M100 0C80.2219 0 60.8879 5.8649 44.443 16.853C27.9981 27.8412 15.1809 43.459 7.61209 61.7316C0.0433281 80.0042 -1.937 100.111 1.92152 119.509C5.78004 138.907 15.3041 156.725 29.2894 170.711C43.2746 184.696 61.0929 194.22 80.491 198.078C99.8891 201.937 119.996 199.957 138.268 192.388C156.541 184.819 172.159 172.002 183.147 155.557C194.135 139.112 200 119.778 200 100C200 73.4783 189.464 48.0429 170.711 29.2893C151.957 10.5357 126.522 0 100 0V0ZM129.766 60.5351C127.652 62.0067 125.164 62.2073 120.401 63.2107C113.017 64.7759 109.512 62.2207 104.348 64.5485C101.304 66.0296 98.8215 68.4559 97.2709 71.4649C97.1178 71.6968 96.9793 71.9381 96.8562 72.1873C96.7092 72.4389 96.5753 72.6979 96.4549 72.9632C95.8915 74.1408 95.4 75.3515 94.9833 76.5886C93.7625 75.7726 92.3185 75.3558 90.8507 75.3956C89.3829 75.4354 87.9636 75.93 86.7889 76.811C85.6142 77.6921 84.742 78.9161 84.2928 80.314C83.8436 81.712 83.8394 83.215 84.281 84.6154V95.3177L68.2275 110.033C61.9397 102.323 57.7878 93.0969 56.1873 83.2776C55.3445 77.9264 53.8596 67.6388 58.8629 56.5217C60.495 52.8963 64 45.097 72.2408 40.4682C74.7826 39.0502 80.1472 36.5752 92.9097 37.592L94.9699 37.7926C97.1238 38.0201 99.3044 38.3144 101.485 38.6756C104.87 39.2241 108.174 39.9331 111.478 40.7492C124.562 44.0669 135.398 49.2441 135.09 53.8461C134.957 56.107 132.04 58.9431 129.766 60.5351Z" fill="white"/>
<path d="M135.117 53.8461C134.957 56.107 132.04 58.9431 129.766 60.5351C127.492 62.1271 125.164 62.2073 120.401 63.2107C113.017 64.7759 109.512 62.2207 104.348 64.5485C101.304 66.0296 98.8215 68.4559 97.271 71.4649C97.1179 71.6968 96.9794 71.9381 96.8563 72.1873C96.7093 72.4389 96.5753 72.6979 96.4549 72.9632C95.8915 74.1408 95.4001 75.3515 94.9833 76.5886C94.4482 76.4147 89.3646 74.8762 85.6188 77.9264C82.9432 80.0802 82.5419 83.2776 82.2743 85.2843C81.8571 88.7571 82.5602 92.2724 84.281 95.3177L68.2275 110.033C61.9397 102.323 57.7878 93.0969 56.1874 83.2776C55.3446 77.9264 53.8596 67.6388 58.863 56.5217C60.4951 52.8963 64.0001 45.097 72.2409 40.4682C74.7827 39.0502 80.1472 36.5752 92.9098 37.592L94.97 37.7926C97.1238 38.0201 99.3044 38.3144 101.485 38.6756C104.87 39.2241 108.174 39.9331 111.478 40.7491C124.589 44.0669 135.425 49.2441 135.117 53.8461Z" fill="black"/>
<path d="M133.779 99.3311C133.325 99.8503 132.798 100.301 132.214 100.669C131.196 101.117 130.096 101.348 128.983 101.348C127.871 101.348 126.771 101.117 125.752 100.669V110.033L124.669 109.819C120.789 109.017 120.107 108.615 119.064 108.696C118.02 108.776 116.669 109.284 115.05 111.371L124.415 114.047C123.725 117.408 122.36 120.594 120.401 123.411C118.515 126.087 117.324 128.134 115.05 128.763C109.057 130.408 104.348 124.348 100.334 126.087C96.321 127.826 95.4113 134.194 94.9832 136.789C93.6454 144.816 96.2274 145.953 94.9832 147.492C94.6573 147.814 94.259 148.054 93.8215 148.191C93.384 148.329 92.92 148.359 92.4682 148.281V148.281C88.4548 148.147 79.0903 144.562 58.8762 132.776C61.9888 125.195 65.1103 117.614 68.2408 110.033L84.2943 95.3177C83.3827 92.7409 82.9299 90.0242 82.9565 87.2909C82.9565 83.7859 83.0501 80.214 85.6321 77.9264C89.0568 74.8896 94.3812 76.4013 94.9966 76.5886C95.4134 75.3515 95.9048 74.1408 96.4682 72.9632C96.5886 72.6979 96.7226 72.4389 96.8695 72.1873C96.8695 72.1873 97.0702 71.8127 97.2842 71.4649C100.027 66.8896 105.686 64.5485 105.686 64.5485C109.191 63.0903 110.836 63.6923 117.726 63.2107C121.315 62.9594 124.888 62.5128 128.428 61.8729C129.201 65.9179 129.435 70.0474 129.124 74.1538C128.995 75.8697 128.762 77.5763 128.428 79.2642C126.528 88.9632 136.455 96.4414 133.779 99.3311Z" stroke="black" stroke-width="1.07" stroke-linejoin="round"/>
<path d="M28.0937 168.896C28.0937 168.776 28.0268 168.642 27.9867 168.468C26.7559 161.873 41.4716 147.492 41.4716 147.492C46.0335 143.064 51.6255 137.846 58.194 132.107L95.6522 142.809C96.2459 147.583 97.7636 152.195 100.12 156.388C101.913 159.532 103.518 160.401 108.361 166.221C125.552 186.956 125.204 190.89 124.415 192.977C121.833 199.759 107.505 200.134 99.6656 200.334C85.29 200.592 71.0641 197.38 58.194 190.97C50.9298 187.344 38.9967 180.816 30.7693 172.91C29.5264 171.842 28.6008 170.454 28.0937 168.896Z" fill="black"/>
<path d="M119.732 197.993C115.144 193.645 116.548 196.281 114.796 194.194C109.686 188.12 112.522 184.134 107.331 175.224C105.231 171.625 103.144 169.498 103.853 168.629C104.562 167.759 107.652 168.736 109.806 170.288C111.278 171.344 112.147 172.522 114.181 175.88C117.819 181.926 118.328 183.492 118.702 183.398C119.532 183.184 119.077 174.702 114.381 167.171C113.032 164.675 111.216 162.463 109.03 160.655C105.217 157.712 102.127 157.739 99.7591 154.328C99.6655 154.181 97.3645 150.796 98.4213 149.552C100.053 147.558 109.03 152.548 111.385 153.793C115.236 155.561 118.731 158.018 121.699 161.043C123.411 162.876 125.525 166.997 129.726 175.157C132.294 180.16 133.565 182.662 134.421 184.602C137.686 191.973 135.599 189.793 137.793 192.642" stroke="black" stroke-width="1.09" stroke-linejoin="round"/>
<path d="M75.5853 129.431C77.0629 129.431 78.2608 128.234 78.2608 126.756C78.2608 125.278 77.0629 124.08 75.5853 124.08C74.1076 124.08 72.9097 125.278 72.9097 126.756C72.9097 128.234 74.1076 129.431 75.5853 129.431Z" fill="#FF841F"/>
<path d="M78.2608 122.742C79.7385 122.742 80.9364 121.545 80.9364 120.067C80.9364 118.589 79.7385 117.391 78.2608 117.391C76.7831 117.391 75.5852 118.589 75.5852 120.067C75.5852 121.545 76.7831 122.742 78.2608 122.742Z" fill="#FF841F"/>
<path d="M80.9364 116.054C82.4141 116.054 83.612 114.856 83.612 113.378C83.612 111.9 82.4141 110.702 80.9364 110.702C79.4588 110.702 78.2609 111.9 78.2609 113.378C78.2609 114.856 79.4588 116.054 80.9364 116.054Z" fill="#FF841F"/>
<path d="M86.2876 110.702C87.7653 110.702 88.9632 109.504 88.9632 108.027C88.9632 106.549 87.7653 105.351 86.2876 105.351C84.81 105.351 83.6121 106.549 83.6121 108.027C83.6121 109.504 84.81 110.702 86.2876 110.702Z" fill="#FF841F"/>
<path d="M91.6387 105.351C93.1164 105.351 94.3143 104.153 94.3143 102.676C94.3143 101.198 93.1164 100 91.6387 100C90.161 100 88.9631 101.198 88.9631 102.676C88.9631 104.153 90.161 105.351 91.6387 105.351Z" fill="#FF841F"/>
<path d="M98.3277 101.338C99.8054 101.338 101.003 100.14 101.003 98.6622C101.003 97.1845 99.8054 95.9866 98.3277 95.9866C96.85 95.9866 95.6521 97.1845 95.6521 98.6622C95.6521 100.14 96.85 101.338 98.3277 101.338Z" fill="#FF841F"/>
<path d="M105.017 98.6622C106.494 98.6622 107.692 97.4643 107.692 95.9866C107.692 94.5089 106.494 93.311 105.017 93.311C103.539 93.311 102.341 94.5089 102.341 95.9866C102.341 97.4643 103.539 98.6622 105.017 98.6622Z" fill="#FF841F"/>
<path d="M111.706 97.3244C113.183 97.3244 114.381 96.1265 114.381 94.6488C114.381 93.1711 113.183 91.9732 111.706 91.9732C110.228 91.9732 109.03 93.1711 109.03 94.6488C109.03 96.1265 110.228 97.3244 111.706 97.3244Z" fill="#FF841F"/>
<path d="M119.732 97.3244C121.21 97.3244 122.408 96.1265 122.408 94.6488C122.408 93.1711 121.21 91.9732 119.732 91.9732C118.255 91.9732 117.057 93.1711 117.057 94.6488C117.057 96.1265 118.255 97.3244 119.732 97.3244Z" fill="#FF841F"/>
<path d="M127.759 98.6622C129.237 98.6622 130.435 97.4643 130.435 95.9866C130.435 94.5089 129.237 93.311 127.759 93.311C126.282 93.311 125.084 94.5089 125.084 95.9866C125.084 97.4643 126.282 98.6622 127.759 98.6622Z" fill="#FF841F"/>
<path d="M136.763 124.415L128.12 117.057" stroke="black" stroke-linejoin="round"/>
<path d="M132.441 111.371L144.482 116.722" stroke="black" stroke-linejoin="round"/>
<path d="M154.515 121.405C159.117 113.873 152.936 108.589 147.157 110.033" stroke="black" stroke-miterlimit="10"/>
<path d="M133.11 129.431C133.11 134.609 139.799 138.796 147.826 134.783" stroke="black" stroke-miterlimit="10"/>
<path d="M149.164 133.445C153.418 135.759 161.204 129.913 156.214 122.635" stroke="black" stroke-width="0.84" stroke-miterlimit="10"/>
</svg>
