<svg width="208" height="163" viewBox="0 0 208 163" fill="none" xmlns="http://www.w3.org/2000/svg">
<path d="M127.077 146.1C127.808 146.381 128.425 146.895 128.836 147.562C129.246 148.228 129.425 149.011 129.347 149.79C129.267 152.55 129.347 155.31 129.347 157.99C131.517 158.65 200.407 158.85 204.297 158.24C204.357 157.51 204.487 156.71 204.487 155.91C204.487 125.03 204.487 94.1469 204.487 63.2602C204.493 62.2503 204.379 61.2432 204.147 60.2602C203.937 59.1575 203.363 58.1574 202.515 57.421C201.668 56.6845 200.598 56.2545 199.477 56.2002C198.832 56.1487 198.184 56.132 197.537 56.1502H136.197C135.647 56.1502 135.087 56.1502 134.537 56.1502C133.227 56.1847 131.976 56.7073 131.031 57.6155C130.086 58.5238 129.514 59.7522 129.427 61.0602C129.339 61.9774 129.305 62.899 129.327 63.8202C129.327 70.3002 129.327 76.7702 129.327 83.2402C129.429 84.0647 129.364 84.9011 129.137 85.7002C128.847 86.3302 128.007 87.1402 127.457 87.1102C126.907 87.0802 126.257 86.1902 125.887 85.5402C125.647 85.1202 125.817 84.4602 125.817 83.9002C125.817 76.4069 125.817 68.9169 125.817 61.4302C125.817 55.7102 128.727 52.7202 134.457 52.5202C137.327 52.4202 140.197 52.5202 143.057 52.5202H146.157V49.2402C146.157 45.3502 146.277 41.4702 146.157 37.5902C145.977 32.7902 148.717 28.8102 154.857 28.6702C157.717 28.6102 160.587 28.6702 163.457 28.6702C163.961 28.6194 164.461 28.5426 164.957 28.4402V3.7302C164.187 3.6602 163.397 3.5102 162.617 3.5102C146.337 3.5102 130.06 3.5102 113.787 3.5102C112.671 3.4488 111.556 3.63278 110.519 4.04917C109.483 4.46557 108.55 5.10425 107.787 5.9202C106.787 6.9202 105.787 7.8002 104.727 8.7302C104.447 8.9802 104.177 9.4002 103.887 9.4202C103.017 9.4202 101.817 9.6602 101.357 9.2002C101.129 8.83347 101.001 8.41361 100.985 7.98216C100.969 7.5507 101.067 7.1226 101.267 6.7402C104.267 3.3102 107.097 -0.0297994 112.387 0.000200587C136.387 0.130201 160.477 0.0602006 184.527 0.0602006C185.077 0.0602006 185.637 0.0602006 186.187 0.110201C187.237 0.220201 187.557 0.920201 187.527 1.8602C187.497 2.8002 187.097 3.4502 186.047 3.4802C185.407 3.4802 184.757 3.4802 184.107 3.4802H171.627C170.717 3.4802 169.817 3.5702 168.747 3.6202V28.6202C171.127 28.6202 173.327 28.6202 175.527 28.6202C177.372 28.6116 179.215 28.7184 181.047 28.9402C182.722 29.1205 184.281 29.8828 185.453 31.0943C186.624 32.3058 187.333 33.8897 187.457 35.5702C187.697 37.7602 187.617 39.9902 187.637 42.2102C187.637 45.5102 187.637 48.8102 187.637 52.4702C189.127 52.4702 190.297 52.4702 191.477 52.4702C194.707 52.5402 197.967 52.3902 201.167 52.7602C205.217 53.2202 207.707 56.2402 207.877 60.3202C207.877 60.9602 207.877 61.6102 207.877 62.2602V158.26C207.877 162.08 207.877 162.08 204.117 162.08H129.507C128.957 162.08 128.397 162.08 127.847 162.08C126.477 162.15 125.777 161.61 125.847 160.16C125.847 156.37 125.787 152.57 125.917 148.79C125.887 147.98 126.607 147.1 127.077 146.1ZM184.077 52.4202C184.077 47.4202 184.137 42.8402 184.077 38.2302C184.017 34.4002 181.877 32.3202 177.947 32.2902C170.56 32.2302 163.17 32.2302 155.777 32.2902C151.717 32.2902 149.707 34.4002 149.657 38.5202C149.607 42.6402 149.657 46.4602 149.657 50.4302C149.703 51.101 149.787 51.7686 149.907 52.4302L184.077 52.4202Z" fill="black"/>
<path d="M74.6369 123.19C73.9069 120.19 74.0969 119.89 76.8769 119.89C86.6769 119.89 96.4803 119.89 106.287 119.89C109.555 119.979 112.736 118.832 115.197 116.68C116.197 115.82 117.002 114.755 117.557 113.558C118.112 112.361 118.405 111.06 118.415 109.74C118.426 108.421 118.154 107.114 117.617 105.909C117.081 104.703 116.294 103.626 115.307 102.75C113.049 100.641 110.076 99.4657 106.987 99.4602C98.9869 99.2502 91.0869 99.0002 83.1369 98.8802C79.4181 98.9505 75.809 97.619 73.0269 95.1502C64.7469 87.9102 54.8569 85.9802 44.2469 87.5102C35.9368 88.6727 28.2497 92.5673 22.3969 98.5802C16.3969 104.58 10.2169 110.45 4.12692 116.38C3.17692 117.3 1.19692 117.6 0.446916 116.92C-0.303084 116.24 -0.113084 114.63 1.04692 113.49C4.26692 110.3 7.51692 107.15 10.7669 104C13.3569 101.48 15.9669 99.0002 18.5369 96.4802C23.6769 91.3902 29.5369 87.4002 36.5369 85.3702C47.4769 82.1902 58.2869 82.5402 68.7269 87.3702C71.1218 88.5716 73.3449 90.0885 75.3369 91.8802C77.6553 94.0247 80.6794 95.245 83.8369 95.3102C91.8369 95.4202 99.7369 95.7502 107.687 95.9702C110.497 96.0502 113.307 96.3602 115.687 97.9702C117.651 99.5038 119.524 101.15 121.297 102.9C124.037 101.17 127.057 99.2802 130.067 97.3702C132.397 95.8802 135.137 94.7502 136.947 92.7702C138.757 90.7902 139.287 88.0202 140.617 85.7102C144.967 78.1002 151.507 73.5302 160.237 72.3702C164.189 71.8118 168.213 72.0602 172.067 73.1002C177.637 74.6402 180.067 80.2302 176.907 85.1002C169.907 95.7702 163.557 106.86 155.267 116.59C151.457 120.85 147.375 124.859 143.047 128.59C138.737 132.48 134.047 135.99 129.697 139.83C127.95 141.433 126.092 142.91 124.137 144.25C120.021 146.949 115.187 148.343 110.267 148.25C90.3869 148.18 70.4969 148.25 50.6069 148.16C48.0769 148.16 46.1469 148.72 44.6069 150.72C43.9869 151.52 43.1669 152.15 42.4769 152.9C41.5369 153.9 40.4769 154.62 39.0569 154.03C37.6369 153.44 38.3769 152.12 38.0569 151.31C39.8169 149.66 41.5369 148.24 43.0569 146.6C43.6319 145.951 44.3485 145.443 45.1514 145.115C45.9543 144.787 46.8219 144.649 47.6869 144.71C61.5569 144.77 75.4269 144.71 89.3069 144.71C95.4969 144.71 101.697 144.65 107.897 144.71C113.773 144.975 119.528 142.978 123.977 139.13C130.817 133.2 138.067 127.75 144.797 121.7C150.228 116.732 154.997 111.086 158.987 104.9C162.797 99.1202 166.587 93.3202 170.407 87.5402C171.407 86.0002 172.607 84.5402 173.557 82.9902C175.167 80.3302 174.407 78.2002 171.557 76.9902C167.756 75.4115 163.546 75.1063 159.557 76.1202C153.397 77.6402 148.297 80.7602 144.967 86.3102C143.67 88.456 142.514 90.6841 141.507 92.9802C140.836 94.5991 139.666 95.9617 138.167 96.8702C133.387 99.8702 128.697 102.97 123.917 105.95C123.253 106.254 122.701 106.76 122.342 107.395C121.983 108.031 121.834 108.765 121.917 109.49C122.517 117.24 116.297 123.38 108.327 123.35C97.7869 123.35 87.2369 123.35 76.6969 123.35C76.0669 123.32 75.4169 123.24 74.6369 123.19Z" fill="black"/>
<path d="M101.637 52.9801C92.547 53.2101 88.637 45.0701 90.927 38.8801C92.4765 35.1401 94.2566 31.4998 96.2569 27.9801C97.1741 26.3803 98.2068 24.8496 99.347 23.4001C99.5643 23.0176 99.8792 22.6994 100.259 22.4781C100.64 22.2567 101.072 22.1401 101.512 22.1401C101.952 22.1401 102.384 22.2567 102.764 22.4781C103.145 22.6994 103.46 23.0176 103.677 23.4001C106.962 27.7357 109.653 32.4912 111.677 37.5401C112.722 40.0307 112.922 42.795 112.247 45.4101C110.987 50.1601 106.987 52.9001 101.637 52.9801ZM101.507 27.4601C98.9858 31.2385 96.7561 35.2033 94.8369 39.3201C92.8969 43.8701 95.5969 48.3201 100.517 49.2101C104.517 49.9601 110.517 45.5201 108.517 40.2101C106.847 35.6901 104.147 31.8701 101.507 27.4101V27.4601Z" fill="black"/>
</svg>
