<svg width="208" height="158" viewBox="0 0 208 158" fill="none" xmlns="http://www.w3.org/2000/svg">
<path d="M0.198243 72.9043C-0.321757 71.2943 0.198243 70.3343 1.55824 69.3943C10.2882 63.3343 18.9982 57.1743 27.6482 51.0343C36.9816 44.5143 46.3149 38.0077 55.6482 31.5143L84.4382 11.3943C86.0282 10.2843 87.6582 9.22432 89.2582 8.12432C91.1882 6.79432 91.9982 6.73432 93.9982 8.10432C100.152 12.3577 106.292 16.6277 112.418 20.9143C118.545 25.201 124.672 29.4943 130.798 33.7943C131.184 34.0277 131.581 34.2413 131.988 34.4343C132.14 33.8162 132.247 33.1879 132.308 32.5543C132.308 28.7643 132.448 24.9643 132.308 21.1843C131.968 12.4143 139.718 6.67432 148.698 10.5543L150.018 11.1243C150.007 9.21985 150.484 7.3443 151.403 5.67618C152.322 4.00805 153.653 2.60285 155.268 1.59432C157.418 0.28334 159.955 -0.243137 162.448 0.104319C163.966 0.265714 165.434 0.736833 166.762 1.48851C168.089 2.24019 169.249 3.25643 170.168 4.47432C172.368 7.06432 171.828 10.1643 172.238 13.1343C181.098 9.03432 190.158 12.2843 190.468 24.0343C191.178 23.7243 191.818 23.4343 192.468 23.1743C200.788 19.8443 207.998 25.3943 207.968 32.9443C207.908 53.0143 208.028 73.0743 207.918 93.1343C208.027 101.61 205.619 109.928 200.998 117.034C195.841 125.006 188.294 131.142 179.438 134.564C170.854 137.929 161.487 138.776 152.438 137.004C151.718 136.874 150.978 136.834 150.268 136.754C149.658 138.884 149.598 151.754 150.268 154.704H157.038C158.428 154.704 159.818 154.704 161.198 154.704C163.738 154.754 163.918 155.044 163.138 157.864H0.498243C-0.211757 155.084 -0.0217566 154.724 2.49824 154.714C8.96824 154.714 15.4982 154.714 21.9182 154.714H24.8482C25.5382 152.414 25.6382 61.2843 24.9682 58.1543C22.5482 59.7743 20.1782 61.3043 17.8782 62.9143C13.3982 66.0276 8.93824 69.1677 4.49824 72.3343C3.10824 73.3343 1.74824 73.8143 0.198243 72.9043ZM132.328 48.8343C132.328 46.0343 132.248 43.9143 132.328 41.8343C132.389 41.197 132.261 40.556 131.96 39.9907C131.66 39.4254 131.2 38.9608 130.638 38.6543C127.038 36.2243 123.508 33.6543 119.958 31.1843C112.118 25.6377 104.265 20.101 96.3982 14.5743C94.8282 13.4843 93.1782 12.4943 91.5482 11.4543C84.9982 16.0343 78.6682 20.4143 72.3082 24.8543C58.6749 34.3877 45.0416 43.911 31.4082 53.4243C30.7085 53.8235 30.1327 54.4083 29.7444 55.1142C29.3562 55.8201 29.1706 56.6196 29.2082 57.4243C29.2816 88.8643 29.2982 120.304 29.2582 151.744C29.2582 152.634 29.3682 153.524 29.4182 154.494H48.6582V150.744C48.6582 133.911 48.6582 117.081 48.6582 100.254C48.6582 97.0643 48.7382 97.0043 51.9182 97.0043H77.4482C81.4482 97.0043 81.4482 97.0043 81.4482 101.144C81.4482 117.971 81.4482 134.801 81.4482 151.634C81.4482 152.634 81.5682 153.564 81.6282 154.534H146.118V135.434C145.118 135.014 144.118 134.544 143.118 134.154C137.886 132.032 133.127 128.891 129.118 124.914C128.524 124.292 127.803 123.805 127.005 123.486C126.206 123.166 125.348 123.023 124.488 123.064C117.738 123.164 110.988 123.124 104.238 123.064C102.078 123.064 101.778 122.834 101.768 121.004C101.715 113.671 101.715 106.364 101.768 99.0843C101.768 97.2843 102.088 97.0843 103.948 96.9943C106.998 96.9943 110.048 96.9943 113.098 96.9943C113.888 96.9943 114.678 96.8643 115.608 96.7843V94.0343C115.608 79.3343 115.608 64.631 115.608 49.9243C115.558 49.1885 115.558 48.4501 115.608 47.7143C115.684 46.8282 116.07 45.9971 116.697 45.3663C117.324 44.7356 118.153 44.3455 119.038 44.2643C122.838 43.7466 126.693 44.6862 129.828 46.8943C130.528 47.4043 131.148 47.9143 132.328 48.8343ZM186.578 69.7343C186.498 68.4143 186.378 67.2443 186.378 66.0643C186.378 52.3843 186.378 38.7043 186.378 25.0643C186.394 23.6772 186.283 22.2915 186.048 20.9243C185.731 19.3721 184.915 17.966 183.726 16.9192C182.537 15.8725 181.038 15.2423 179.458 15.1243C177.968 15.1223 176.515 15.5845 175.3 16.4465C174.085 17.3085 173.169 18.5276 172.678 19.9343C172.276 21.2559 172.087 22.6332 172.118 24.0143C172.078 37.9743 172.078 51.9343 172.118 65.8943C172.118 66.6343 172.118 67.3743 172.118 68.1143C172.018 69.6543 171.488 70.1143 170.118 70.1143C169.863 70.1424 169.605 70.1102 169.364 70.0202C169.124 69.9303 168.908 69.785 168.733 69.5963C168.559 69.4076 168.432 69.1805 168.361 68.9336C168.291 68.6866 168.28 68.4265 168.328 68.1743C168.328 67.4343 168.328 66.6943 168.328 65.9543V13.4943C168.365 12.2953 168.312 11.0952 168.168 9.90432C167.913 8.29357 167.127 6.81425 165.935 5.70167C164.743 4.58909 163.213 3.90715 161.588 3.76432C160.003 3.71442 158.447 4.19491 157.167 5.12963C155.886 6.06435 154.954 7.39982 154.518 8.92432C154.273 9.90456 154.165 10.9143 154.198 11.9243C154.198 15.0743 154.288 18.2143 154.288 21.3543C154.288 36.5143 154.288 51.6776 154.288 66.8443C154.288 67.4843 154.288 68.1343 154.288 68.7843C154.178 70.4043 153.768 70.7843 152.358 70.8643C150.948 70.9443 150.478 70.4643 150.358 68.8643C150.308 68.1243 150.358 67.3843 150.358 66.6443V22.2743C150.358 21.4443 150.358 20.6043 150.358 19.7843C150.239 18.0468 149.501 16.4098 148.276 15.171C147.052 13.9322 145.424 13.174 143.688 13.0343C141.957 12.9874 140.268 13.5694 138.933 14.6726C137.598 15.7758 136.708 17.3254 136.428 19.0343C136.233 20.4052 136.153 21.79 136.188 23.1743C136.188 43.1743 136.188 63.1443 136.188 83.0843C136.188 84.0143 136.188 84.9343 136.138 85.8543C136.159 86.0881 136.125 86.3235 136.04 86.5422C135.955 86.7609 135.821 86.9572 135.648 87.1157C135.475 87.2742 135.267 87.3908 135.042 87.4565C134.817 87.5221 134.579 87.5351 134.348 87.4943C133.348 87.4443 132.518 87.0843 132.348 85.9443C132.288 85.2059 132.268 84.4649 132.288 83.7243C132.288 76.5177 132.288 69.3076 132.288 62.0943C132.288 61.0943 132.288 60.0943 132.228 59.0443C132.046 56.2534 130.903 53.6118 128.992 51.5696C127.081 49.5274 124.521 48.2109 121.748 47.8443C119.948 47.6243 119.348 48.0843 119.178 49.8443C119.178 50.3043 119.178 50.7643 119.178 51.2343C119.178 64.821 119.178 78.411 119.178 92.0043C119.167 94.0369 119.29 96.0681 119.548 98.0843C120.894 108.276 126.111 117.557 134.118 124.004C144.878 132.914 157.168 136.284 170.878 133.214C184.588 130.144 194.558 121.944 200.718 109.324C203.276 103.758 204.515 97.6773 204.338 91.5543C204.338 72.6943 204.338 53.8343 204.338 34.9743C204.367 34.0487 204.32 33.1223 204.198 32.2043C203.948 30.5903 203.166 29.1063 201.975 27.9883C200.785 26.8702 199.255 26.1824 197.628 26.0343C196.046 25.9793 194.49 26.4526 193.206 27.3797C191.922 28.3067 190.984 29.6348 190.538 31.1543C190.271 32.3244 190.163 33.5253 190.218 34.7243C190.218 45.2643 190.218 55.8043 190.218 66.3443C190.218 67.4243 190.058 68.5043 189.968 69.7543L186.578 69.7343ZM77.7282 154.564V100.654H52.3382V154.564H77.7282ZM124.348 119.564C119.688 113.634 117.588 107.204 116.058 100.564C112.398 100.564 109.058 100.354 105.538 100.704C105.538 107.214 105.468 113.334 105.538 119.604L124.348 119.564Z" fill="black"/>
</svg>
