<svg width="174" height="184" viewBox="0 0 174 184" fill="none" xmlns="http://www.w3.org/2000/svg">
<path d="M59.8865 88.9446C60.6214 91.5394 63.9283 92.3734 62.4323 95.6786C61.9153 95.9568 61.3355 96.0299 60.7802 95.887C60.2248 95.744 59.7239 95.3927 59.3528 94.8858C57.6731 92.8883 55.8534 91.0349 54.1912 89.0476C53.0364 87.6782 53.0451 86.4837 54.1912 85.0937C55.9409 83.0344 57.7431 81.0574 59.5278 79.0393C59.6503 78.9054 59.764 78.6789 59.8865 78.6686C60.7088 78.6686 61.7587 78.2464 62.3098 78.6686C63.0797 79.2967 62.896 80.6249 62.3098 81.5002C61.5837 82.6019 60.7001 83.5595 59.6065 84.9289C60.6476 85.0319 61.3562 85.1555 62.0036 85.1555C81.4079 85.1555 100.812 85.1555 120.216 85.1555C122.998 85.1555 125.772 85.3511 128.554 85.1555C128.956 85.1195 129.359 85.1195 129.761 85.1555C130.636 85.2893 131.292 85.7939 131.327 86.9471C131.362 88.1003 130.732 88.6666 129.848 88.8005C129.21 88.9034 128.554 88.8005 127.906 88.8623C122.955 89.2226 118.003 88.8005 113.034 88.8623C108.065 88.924 103.008 88.8623 97.9951 88.8623H59.8865V88.9446Z" fill="black"/>
<path d="M119.443 108.272H115.942C97.4021 108.272 78.8621 108.272 60.3222 108.22C58.694 108.22 57.1272 108.848 55.4115 108.323C53.8971 107.849 52.1989 108.199 50.5795 108.189C50.0944 108.202 49.609 108.178 49.1264 108.117C48.3474 107.983 47.7259 107.582 47.6996 106.511C47.6689 106.273 47.6828 106.03 47.7404 105.799C47.798 105.568 47.8979 105.355 48.0331 105.175C48.1682 104.994 48.3354 104.85 48.5228 104.754C48.7101 104.657 48.9132 104.61 49.1177 104.616C49.8442 104.544 50.5708 104.616 51.2973 104.616C55.6128 104.441 59.9283 104.616 64.235 104.616H119.531C118.726 103.587 118.279 102.928 117.78 102.32C117.281 101.713 116.817 101.424 116.66 100.858C116.424 100.024 116.178 98.5515 116.494 98.2941C117.098 97.7998 118.542 97.5218 118.848 97.944C120.1 99.6635 122.192 100.158 123.102 102.341C123.479 103.226 124.345 103.823 124.932 104.606C125.956 105.975 125.912 106.943 124.932 108.385C123.241 110.593 121.418 112.658 119.478 114.563C118.603 115.5 117.211 115.592 116.607 114.923C116.003 114.254 116.108 112.771 116.966 111.587C117.334 111.083 117.772 110.65 118.157 110.156C118.542 109.662 118.752 109.27 119.443 108.272Z" fill="black"/>
<path d="M160.661 123.562C160.661 143.517 160.661 163.256 160.661 183.035C159.631 183.138 159.055 183.252 158.499 183.241C157.129 183.241 156.717 182.407 156.79 181.182C156.913 179.298 157.068 177.403 157.068 175.519C157.068 155.9 157.068 136.289 157.068 116.684V112.73L160.373 112.452C160.507 114.892 160.63 117.106 160.754 119.289C162.685 119.711 164.705 119.353 166.374 118.295C168.043 117.237 169.228 115.563 169.671 113.636C169.988 112.245 170.137 110.821 170.113 109.394C170.113 93.9694 170.113 78.5485 170.113 63.1309C170.126 61.7964 169.998 60.4643 169.732 59.1564C169.373 57.5199 168.504 56.0397 167.249 54.9294C165.994 53.819 164.419 53.1359 162.751 52.9785C161.722 52.8858 160.692 52.8446 159.662 52.8446H117.899C117.044 52.8446 116.18 52.8446 115.325 52.9064C114.251 52.929 113.193 53.164 112.21 53.5978C111.228 54.0316 110.341 54.6557 109.601 55.4339C108.862 56.2121 108.283 57.1292 107.899 58.1322C107.515 59.1351 107.334 60.2041 107.366 61.2775C107.294 64.3665 107.273 67.3629 107.366 70.4107C107.464 71.0789 107.317 71.7602 106.952 72.3282C106.586 72.8963 106.027 73.3125 105.378 73.4997C103.906 73.0981 103.371 72.1302 103.412 70.5651C103.494 67.0437 103.597 63.5119 103.412 60.0008C103.082 54.4509 108.951 49.5497 113.049 49.2922C114.388 49.2099 115.716 49.1275 117.044 49.1275H159.899C161.042 49.1275 162.185 49.1275 163.318 49.2305C166.003 49.3738 168.548 50.4765 170.488 52.3379C172.429 54.1993 173.637 56.6957 173.892 59.3727C173.968 60.1322 174.002 60.8953 173.995 61.6585C173.995 78.1332 173.995 94.6078 173.995 111.082C174.058 113.37 173.503 115.632 172.389 117.631C171.491 119.374 170.13 120.836 168.455 121.855C166.78 122.874 164.856 123.411 162.895 123.408C162.329 123.418 161.814 123.49 160.661 123.562Z" fill="black"/>
<path d="M157.181 18.1449C157.655 28.1739 148.944 36.2567 138.894 36.37C128.474 36.4936 120 28.977 119.804 18.6598C119.598 7.09664 128.865 0.156702 138.276 0.00225265C148.357 -0.152197 157.696 7.65266 157.181 18.1449ZM138.595 3.80172C129.328 3.8532 123.758 11.8846 123.501 18.0626C123.212 25.2702 130.708 32.4779 138.328 32.5911C146.163 32.7044 153.134 26.0322 153.227 18.32C153.32 10.6078 146.483 3.83261 138.595 3.80172Z" fill="black"/>
<path d="M136.711 156.223C136.711 148.041 136.711 139.862 136.711 131.686C136.711 129.184 137.102 128.597 138.637 128.679C140.171 128.762 140.356 129.194 140.356 131.593C140.356 146.915 140.356 162.229 140.356 177.537C140.356 178.865 140.49 180.194 140.48 181.522C140.48 183.005 139.913 183.365 138.245 183.303C136.896 183.252 136.474 182.572 136.474 181.306C136.474 172.945 136.474 164.584 136.474 156.223H136.711Z" fill="black"/>
<path d="M116.509 182.943V125.827C116.509 124.88 116.509 123.922 116.458 122.985C116.19 120.082 116.458 119.835 119.825 120.205C119.897 121.338 120.03 122.532 120.03 123.727C120.03 141.684 120.03 159.645 120.03 177.609C120.03 178.567 120.03 179.514 120.03 180.461C120.216 183.159 119.938 183.396 116.509 182.943Z" fill="black"/>
<path d="M136.742 88.0283C136.69 85.691 137.185 84.9393 138.801 85.2276C139.122 85.3203 139.419 85.4815 139.671 85.7002C139.924 85.9189 140.126 86.1897 140.263 86.4941C140.451 87.3221 140.479 88.1783 140.346 89.0168C140.354 89.2556 140.309 89.4932 140.214 89.7122C140.118 89.9313 139.975 90.126 139.794 90.2822C139.613 90.4383 139.399 90.5519 139.169 90.6144C138.938 90.677 138.696 90.687 138.461 90.6437C138.248 90.665 138.033 90.642 137.829 90.5761C137.625 90.5102 137.436 90.4028 137.276 90.2606C137.115 90.1185 136.986 89.9446 136.896 89.7501C136.806 89.5555 136.757 89.3444 136.752 89.1301C136.729 88.7633 136.726 88.3955 136.742 88.0283Z" fill="black"/>
<path d="M136.732 74.2926C136.732 71.9758 137.205 71.2036 138.791 71.5125C139.119 71.616 139.422 71.7878 139.68 72.0168C139.937 72.2457 140.143 72.5265 140.284 72.8407C140.445 73.5779 140.477 74.3375 140.377 75.0854C140.417 75.3467 140.394 75.6138 140.311 75.8646C140.227 76.1153 140.084 76.3423 139.895 76.5268C139.705 76.7112 139.474 76.8476 139.221 76.9246C138.969 77.0017 138.701 77.0171 138.441 76.9697C138.204 76.9868 137.966 76.9511 137.745 76.8652C137.523 76.7793 137.323 76.6454 137.16 76.473C136.997 76.3007 136.873 76.0942 136.799 75.8685C136.725 75.6428 136.702 75.4035 136.732 75.1678C136.721 74.8692 136.732 74.5809 136.732 74.2926Z" fill="black"/>
<path d="M140.377 102.052C140.383 102.397 140.359 102.742 140.305 103.082C140.284 103.296 140.216 103.503 140.105 103.687C139.994 103.872 139.843 104.028 139.663 104.146C139.483 104.264 139.278 104.34 139.065 104.367C138.852 104.395 138.635 104.375 138.431 104.307C138.097 104.218 137.785 104.063 137.512 103.851C137.24 103.638 137.013 103.373 136.845 103.072C136.668 102.341 136.626 101.583 136.721 100.837C136.721 99.6017 137.174 98.8706 138.533 98.8603C139.893 98.85 140.387 99.5811 140.377 100.817C140.366 101.105 140.377 101.383 140.377 102.052Z" fill="black"/>
<path d="M12.7472 119.443C12.809 117.693 12.7472 115.912 12.9429 114.151C13.0459 112.709 13.6225 112.328 15.0022 112.421C16.382 112.514 16.5261 113.337 16.5261 114.388C16.5261 116.962 16.5261 119.536 16.5261 122.1V178.948C16.5261 179.699 16.5982 180.461 16.6497 181.223C16.7321 182.49 16.2275 183.18 14.8787 183.283C13.5298 183.386 12.912 182.799 12.8811 181.491C12.8811 180.633 12.8811 179.778 12.8811 178.927V123.634C11.594 123.49 10.5644 123.397 9.55529 123.263C7.07322 122.986 4.76755 121.845 3.04153 120.04C1.31551 118.235 0.278996 115.881 0.113263 113.389C0.0205933 112.153 0.113263 110.907 0.113263 109.672C0.0377544 93.3071 0 76.932 0 60.5466C0 56.6647 1.215 53.3389 4.57171 51.2796C6.12602 50.4025 7.79704 49.7508 9.53469 49.3438C10.6606 49.1283 11.81 49.0625 12.9532 49.1482C27.7083 49.1482 42.4737 49.1482 57.2288 49.1482C60.6472 49.1482 63.7671 49.7454 66.4957 52.0518C67.5243 52.8266 68.3745 53.813 68.9891 54.9445C69.6037 56.076 69.9684 57.3263 70.0584 58.6108C70.254 62.7912 70.2334 66.982 70.151 71.1624C70.151 71.9655 69.4097 72.7584 69.0287 73.5306C66.3722 72.501 66.3413 72.501 66.331 70.3593C66.331 67.5071 66.331 64.6446 66.331 61.7925C66.2177 56.2426 62.964 52.927 57.3832 52.8961C42.5251 52.8344 27.6671 52.8961 12.809 52.8961C8.92719 52.8961 5.85879 54.2656 4.37607 57.9827C3.86784 59.5115 3.64108 61.1197 3.70679 62.7294C3.70679 78.4421 3.70679 94.1548 3.70679 109.867C3.70679 110.434 3.70679 111.01 3.70679 111.577C3.96421 116.653 7.10469 119.515 12.7472 119.443Z" fill="black"/>
<path d="M53.6352 17.9699C54.0985 28.524 45.3978 36.4112 34.9776 36.37C24.4236 36.37 16.1451 28.4622 16.2171 17.9493C16.2686 7.71445 24.7737 0.0022583 35.163 0.0022583C44.8315 0.0537415 54.1706 7.52911 53.6352 17.9699ZM20.3358 18.2582C20.4143 22.1109 22.0126 25.7763 24.7824 28.4554C27.5521 31.1344 31.2687 32.61 35.1218 32.5603C43.6165 32.6838 49.9901 24.3229 49.9696 18.145C49.949 11.967 43.5033 3.61638 35.0085 3.82231C31.1561 3.81648 27.4565 5.32807 24.7103 8.02986C21.9642 10.7317 20.3926 14.4063 20.3358 18.2582V18.2582Z" fill="black"/>
<path d="M57.0846 151.631V179.586C57.0846 180.255 57.0846 180.914 57.0846 181.584C57.0846 182.747 56.5286 183.283 55.3239 183.293C54.1191 183.303 53.2645 182.747 53.2645 181.481C53.2645 180.06 53.4293 178.639 53.4396 177.218C53.4396 159.528 53.4396 141.845 53.4396 124.17C53.4396 123.315 53.4396 122.45 53.4396 121.595C53.4396 120.494 53.9338 119.845 55.1694 119.835C55.4338 119.79 55.7049 119.807 55.9621 119.882C56.2193 119.958 56.456 120.091 56.6543 120.271C56.8526 120.452 57.0073 120.675 57.1068 120.924C57.2063 121.173 57.248 121.441 57.2287 121.709C57.2287 122.841 57.0846 123.974 57.0846 125.107C57.0709 133.955 57.0709 142.796 57.0846 151.631Z" fill="black"/>
<path d="M36.9341 156.223V181.028C36.9341 182.737 36.3678 183.355 34.8748 183.283C33.3818 183.21 33.1347 182.706 33.145 180.997C33.145 164.92 33.1724 148.854 33.2273 132.798C33.2273 131.943 33.2273 131.089 33.2273 130.234C33.2148 130.019 33.2486 129.804 33.3265 129.603C33.4044 129.402 33.5245 129.22 33.6788 129.07C33.8331 128.92 34.0179 128.804 34.2207 128.731C34.4235 128.659 34.6395 128.63 34.8542 128.649C35.8839 128.587 36.5634 128.957 36.7076 129.987C36.8104 130.834 36.8516 131.688 36.8312 132.541C36.8312 140.435 36.8312 148.329 36.8312 156.223H36.9341Z" fill="black"/>
<path d="M33.186 100.848C33.2361 100.309 33.4049 99.7888 33.6803 99.3237C33.8959 99.1148 34.16 98.9628 34.4489 98.8813C34.7378 98.7998 35.0425 98.7913 35.3355 98.8567C35.6284 98.922 35.9006 99.0591 36.1275 99.2556C36.3544 99.4522 36.5289 99.702 36.6354 99.9827C36.7982 100.911 36.8328 101.856 36.7384 102.794C36.7477 103.032 36.7029 103.269 36.6072 103.487C36.5116 103.706 36.3676 103.9 36.1862 104.054C36.0048 104.209 35.7906 104.32 35.5599 104.38C35.3291 104.44 35.0878 104.447 34.8541 104.4C34.6165 104.415 34.3786 104.377 34.1579 104.288C33.9371 104.199 33.7393 104.061 33.5791 103.885C33.4189 103.709 33.3003 103.499 33.2323 103.271C33.1643 103.043 33.1484 102.802 33.186 102.567V100.848Z" fill="black"/>
<path d="M36.7797 74.7868C36.812 75.0397 36.812 75.2958 36.7797 75.5487C36.7649 75.7619 36.7063 75.9697 36.6076 76.1592C36.5088 76.3487 36.3721 76.5158 36.2059 76.6501C36.0397 76.7844 35.8477 76.883 35.6417 76.9397C35.4357 76.9965 35.2202 77.0102 35.0087 76.9799C33.979 76.9799 33.3509 76.5887 33.2686 75.5384C33.2686 74.7868 33.2686 74.0248 33.2686 73.2732C33.2686 72.1714 33.7113 71.5021 34.9263 71.4403C36.1413 71.3786 36.8003 72.0684 36.8621 73.2937C36.8003 73.5718 36.7797 73.8601 36.7797 74.7868Z" fill="black"/>
<path d="M36.8002 88.0489C36.8002 88.4298 36.8826 89.0785 36.5943 89.511C36.3962 89.7847 36.1459 90.0166 35.8579 90.1934C35.5699 90.3701 35.2498 90.4881 34.9159 90.5406C34.5792 90.4958 34.2583 90.3703 33.9805 90.1749C33.7027 89.9796 33.4761 89.72 33.32 89.4183C33.1275 88.6022 33.0856 87.7577 33.1964 86.9265C33.1596 86.6936 33.1763 86.4553 33.2453 86.2297C33.3142 86.0041 33.4335 85.7972 33.5942 85.6246C33.755 85.452 33.9528 85.3182 34.1729 85.2333C34.393 85.1485 34.6295 85.1148 34.8645 85.1349C35.0961 85.0939 35.3339 85.1046 35.5609 85.1662C35.7878 85.2279 35.9984 85.3389 36.1775 85.4914C36.3565 85.6439 36.4997 85.8341 36.5966 86.0484C36.6936 86.2626 36.7421 86.4957 36.7385 86.7309C36.7796 87.1222 36.7796 87.5237 36.8002 88.0489Z" fill="black"/>
</svg>
